<svg>
  <symbol id='logo'
    xmlns="http://www.w3.org/2000/svg" viewBox="0 96 960 960">
    <path d="M385 936q-51 0-86.5-38T258 812q-59-5-98.5-49.5T120 654q0-22 5.5-42.5T142 572q-11-18-16.5-38t-5.5-43q0-60 41.5-103t98.5-50q2-51 38.5-86.5T386 216q29 0 51.5 10.5T480 257q20-20 42-30.5t51-10.5q50 0 86 35.5t39 86.5q58 5 100 48.5T840 491q0 23-6 43.5T817 573q11 20 17 42t6 43q0 64-39.5 106.5T702 812q-5 48-41 86t-86 38q-30 0-52-10t-43-30q-21 20-43 30t-52 10Zm125-600v480q0 25 19.5 42.5T576 876q26 0 45-23t21-47q-23-8-43-21.5T565 751q-8-11-6-22.5t13-19.5q11-8 22.5-6t19.5 13q13 18 32 27.5t42 9.5q38 0 65-26t27-69q0-9-2-18.5t-4-19.5q-18 13-39.5 19.5T690 646q-13 0-21.5-8.5T660 616q0-13 8.5-21.5T690 586q38 0 64-28t26-67q0-38-28-65t-64-29q-10 24-28.5 42.5T617 467q-12 5-23-.5T579 449q-4-12 1-23.5t17-15.5q18-6 29.5-24t11.5-41q0-29-19-49t-45-20q-26 0-45 17.5T510 336Zm-60 480V336q0-25-18.5-42.5T386 276q-26 0-45.5 20T321 345q0 23 11 40.5t29 23.5q12 4 17.5 15.5T380 447q-5 12-16.5 18t-23.5 1q-24-8-42-26.5T270 397q-35 3-62.5 29.5T180 491q0 39 26 67t64 28q13 0 21.5 8.5T300 616q0 13-8.5 21.5T270 646q-23 0-44.5-7T186 620q-3 8-4.5 17t-1.5 18q0 43 26.5 70.5T271 753q22 0 41.5-10t32.5-27q8-10 20-12.5t22 5.5q10 8 12.5 20t-5.5 22q-14 20-33.5 33.5T318 806q2 24 21 47t46 23q27 0 46-17.5t19-42.5Zm30-240Z"/>
  </symbol>

  <symbol id="label"
    xmlns="http://www.w3.org/2000/svg">
    <polygon points="0 10,10 0,40 0,40,20,10 20" />
    <!-- <polygon points="0 5,5 0,20 0,20,10,5 10" /> -->
  </symbol>

  <symbol id="arrow"
    xmlns="http://www.w3.org/2000/svg" height="24" viewBox="0 96 960 960" width="24">
    <path d="m702 755-43-42 106-106H120v-60h646L660 441l42-42 178 178-178 178Z" fill='white'/>
  </symbol>

  <symbol viewBox="0 0 16 16" id="vk"
    xmlns="http://www.w3.org/2000/svg">
    <path d="M7.839 11.467h.897s.271-.028.409-.167c.127-.128.123-.368.123-.368s-.018-1.126.541-1.291c.55-.163 1.257 1.087 2.006 1.568.567.364.997.284.997.284l2.003-.026s1.048-.06.551-.831c-.041-.063-.289-.57-1.489-1.611-1.256-1.09-1.088-.914.425-2.799.921-1.148 1.29-1.849 1.175-2.149-.11-.286-.787-.21-.787-.21l-2.255.013s-.167-.021-.291.048a.6.6 0 0 0-.199.226s-.357.888-.833 1.644c-1.004 1.594-1.406 1.679-1.57 1.58-.383-.231-.288-.928-.288-1.422 0-1.545.251-2.189-.488-2.356-.245-.056-.426-.092-1.053-.098-.805-.008-1.486.002-1.871.179-.257.117-.455.379-.334.394.149.019.486.085.665.313.231.294.223.954.223.954s.133 1.819-.31 2.045c-.304.155-.721-.161-1.616-1.608-.459-.741-.805-1.56-.805-1.56s-.067-.153-.186-.235c-.145-.099-.347-.131-.347-.131l-2.143.014s-.322.008-.44.139c-.105.116-.008.357-.008.357s1.678 3.67 3.578 5.52c1.742 1.695 3.72 1.584 3.72 1.584z"></path>
  </symbol>

  <symbol xmlns="http://www.w3.org/2000/svg" viewBox="0 0 24 24" id="facebook">
    <path d="m3 24h9v-8.25h-3v-3.75h3v-3c0-2.486 2.014-4.5 4.5-4.5h3v3.75h-1.5c-.828 0-1.5-.078-1.5.75v3h3.75l-1.5 3.75h-2.25v8.25h4.5c1.654 0 3-1.346 3-3v-18c0-1.655-1.346-3-3-3h-18c-1.655 0-3 1.345-3 3v18c0 1.654 1.345 3 3 3z"></path>
  </symbol>

  <symbol xmlns="http://www.w3.org/2000/svg" viewBox="0 0 256 256" id="instagram">
    <rect width="256" height="256" fill="none"></rect>
    <circle cx="128" cy="128" r="40" fill="none" stroke-miterlimit="10" stroke-width="16"></circle>
    <rect width="184" height="184" x="36" y="36" fill="none" stroke-linecap="round" stroke-linejoin="round" stroke-width="16" rx="48"></rect>
    <circle cx="180" cy="76" r="12"></circle>
  </symbol>
</svg>